HIERARCHY
ROOT hip
{
  OFFSET 0 0 0
  CHANNELS 6 Xposition Yposition Zposition Zrotation Yrotation Xrotation
  JOINT abdomen
  {
    OFFSET 0 20.6881 -0.73152
    CHANNELS 3 Zrotation Xrotation Yrotation
    JOINT chest
    {
      OFFSET 0 11.7043 -0.48768
      CHANNELS 3 Zrotation Xrotation Yrotation
      JOINT neck
      {
        OFFSET 0 22.1894 -2.19456
        CHANNELS 3 Zrotation Xrotation Yrotation
        JOINT head
        {
          OFFSET -0.24384 7.07133 1.2192
          CHANNELS 3 Zrotation Xrotation Yrotation
          JOINT leftEye
          {
            OFFSET 4.14528 8.04674 8.04672
            CHANNELS 3 Zrotation Xrotation Yrotation
            End Site
            {
              OFFSET 1 0 0
            }
          }
          JOINT rightEye
          {
            OFFSET -3.6576 8.04674 8.04672
            CHANNELS 3 Zrotation Xrotation Yrotation
            End Site
            {
              OFFSET 1 0 0
            }
          }
        }
      }
      JOINT rCollar
      {
        OFFSET -2.68224 19.2634 -4.8768
        CHANNELS 3 Zrotation Xrotation Yrotation
        JOINT rShldr
        {
          OFFSET -8.77824 -1.95073 1.46304
          CHANNELS 3 Zrotation Xrotation Yrotation
          JOINT rForeArm
          {
            OFFSET -28.1742 -1.7115 0.48768
            CHANNELS 3 Zrotation Xrotation Yrotation
            JOINT rHand
            {
              OFFSET -22.5879 0.773209 7.07136
              CHANNELS 3 Zrotation Xrotation Yrotation
              JOINT rThumb1
              {
                OFFSET -1.2192 -0.487915 3.41376
                CHANNELS 3 Zrotation Xrotation Yrotation
                JOINT rThumb2
                {
                  OFFSET -3.37035 -0.52449 3.41376
                  CHANNELS 3 Zrotation Xrotation Yrotation
                  End Site
                  {
                    OFFSET -1.78271 -1.18214 1.43049
                  }
                }
              }
              JOINT rIndex1
              {
                OFFSET -7.75947 0.938293 5.60832
                CHANNELS 3 Zrotation Xrotation Yrotation
                JOINT rIndex2
                {
                  OFFSET -2.54057 -0.884171 1.56538
                  CHANNELS 3 Zrotation Xrotation Yrotation
                  End Site
                  {
                    OFFSET -1.62519 -0.234802 1.16502
                  }
                }
              }
              JOINT rMid1
              {
                OFFSET -8.24714 1.18213 3.41376
                CHANNELS 3 Zrotation Xrotation Yrotation
                JOINT rMid2
                {
                  OFFSET -3.10165 -0.590103 1.0647
                  CHANNELS 3 Zrotation Xrotation Yrotation
                  End Site
                  {
                    OFFSET -2.48547 -0.328903 0.83742
                  }
                }
              }
              JOINT rRing1
              {
                OFFSET -8.82822 0.546677 1.51678
                CHANNELS 3 Zrotation Xrotation Yrotation
                JOINT rRing2
                {
                  OFFSET -2.60934 -0.819778 -0.0198488
                  CHANNELS 3 Zrotation Xrotation Yrotation
                  End Site
                  {
                    OFFSET -2.33842 -0.294052 0.168128
                  }
                }
              }
              JOINT rPinky1
              {
                OFFSET -8.27202 -0.0477905 -0.4584
                CHANNELS 3 Zrotation Xrotation Yrotation
                JOINT rPinky2
                {
                  OFFSET -1.82734 -0.647385 -0.700984
                  CHANNELS 3 Zrotation Xrotation Yrotation
                  End Site
                  {
                    OFFSET -1.69225 -0.51767 -0.607171
                  }
                }
              }
            }
          }
        }
      }
      JOINT lCollar
      {
        OFFSET 2.68224 19.2634 -4.8768
        CHANNELS 3 Zrotation Xrotation Yrotation
        JOINT lShldr
        {
          OFFSET 8.77824 -1.95073 1.46304
          CHANNELS 3 Zrotation Xrotation Yrotation
          JOINT lForeArm
          {
            OFFSET 28.1742 -1.7115 0.48768
            CHANNELS 3 Zrotation Xrotation Yrotation
            JOINT lHand
            {
              OFFSET 22.5879 0.773209 7.07136
              CHANNELS 3 Zrotation Xrotation Yrotation
              JOINT lThumb1
              {
                OFFSET 1.2192 -0.487915 3.41376
                CHANNELS 3 Zrotation Xrotation Yrotation
                JOINT lThumb2
                {
                  OFFSET 3.37035 -0.52449 3.41376
                  CHANNELS 3 Zrotation Xrotation Yrotation
                  End Site
                  {
                    OFFSET 1.78271 -1.18214 1.43049
                  }
                }
              }
              JOINT lIndex1
              {
                OFFSET 7.75947 0.938293 5.60832
                CHANNELS 3 Zrotation Xrotation Yrotation
                JOINT lIndex2
                {
                  OFFSET 2.54057 -0.884171 1.56538
                  CHANNELS 3 Zrotation Xrotation Yrotation
                  End Site
                  {
                    OFFSET 1.62519 -0.234802 1.16502
                  }
                }
              }
              JOINT lMid1
              {
                OFFSET 8.24714 1.18213 3.41376
                CHANNELS 3 Zrotation Xrotation Yrotation
                JOINT lMid2
                {
                  OFFSET 3.10165 -0.590103 1.0647
                  CHANNELS 3 Zrotation Xrotation Yrotation
                  End Site
                  {
                    OFFSET 2.48547 -0.328903 0.83742
                  }
                }
              }
              JOINT lRing1
              {
                OFFSET 8.82822 0.546677 1.51678
                CHANNELS 3 Zrotation Xrotation Yrotation
                JOINT lRing2
                {
                  OFFSET 2.60934 -0.819778 -0.0198488
                  CHANNELS 3 Zrotation Xrotation Yrotation
                  End Site
                  {
                    OFFSET 2.33842 -0.294052 0.168128
                  }
                }
              }
              JOINT lPinky1
              {
                OFFSET 8.27202 -0.0477905 -0.4584
                CHANNELS 3 Zrotation Xrotation Yrotation
                JOINT lPinky2
                {
                  OFFSET 1.82734 -0.647385 -0.700984
                  CHANNELS 3 Zrotation Xrotation Yrotation
                  End Site
                  {
                    OFFSET 1.69225 -0.51767 -0.607171
                  }
                }
              }
            }
          }
        }
      }
    }
  }
  JOINT rButtock
  {
    OFFSET -8.77824 4.35084 1.2192
    CHANNELS 3 Zrotation Xrotation Yrotation
    JOINT rThigh
    {
      OFFSET 0 -1.70687 -2.19456
      CHANNELS 3 Zrotation Xrotation Yrotation
      JOINT rShin
      {
        OFFSET 0 -36.8199 0.73152
        CHANNELS 3 Zrotation Xrotation Yrotation
        JOINT rFoot
        {
          OFFSET 0.73152 -45.1104 -5.12064
          CHANNELS 3 Zrotation Xrotation Yrotation
          End Site
          {
            OFFSET -1.1221 -3.69964 12.103
          }
        }
      }
    }
  }
  JOINT lButtock
  {
    OFFSET 8.77824 4.35084 1.2192
    CHANNELS 3 Zrotation Xrotation Yrotation
    JOINT lThigh
    {
      OFFSET 0 -1.70687 -2.19456
      CHANNELS 3 Zrotation Xrotation Yrotation
      JOINT lShin
      {
        OFFSET 0 -36.8199 0.73152
        CHANNELS 3 Zrotation Xrotation Yrotation
        JOINT lFoot
        {
          OFFSET -0.73152 -45.1104 -5.12064
          CHANNELS 3 Zrotation Xrotation Yrotation
          End Site
          {
            OFFSET 1.1221 -3.69964 12.103
          }
        }
      }
    }
  }
}
MOTION
Frames:	6
Frame Time:	0.00833333
49.0947 85.2022 57.6508 0.0 0.0 0.0 0.602235 -0.00285575 0.0171682 0.166045 -0.00431801 0.0287693 6.23014e-15 0.0 1.36664e-16 1.87914e-14 3.18055e-15 4.00675e-16 -0.0 0.0 0.0 -0.0 0.0 0.0 3.22898e-15 -9.51216e-18 2.48481e-16 6.67885e-14 -3.29237e-16 2.38542e-15 1.12661e-12 -3.47078e-13 0.0 1.2903e-11 2.94649e-13 2.92611e-13 3.04315e-11 -1.13934e-13 6.71097e-13 5.25344e-11 -1.94014e-13 1.15057e-12 3.04359e-11 -1.1609e-13 6.71097e-13 7.73091 5.47488 0.417314 3.04324e-11 -1.13904e-13 6.71097e-13 2.90554 0.965183 0.102902 3.04403e-11 -1.13904e-13 6.67121e-13 10.2786 0.731801 0.0259123 3.04246e-11 -1.09729e-13 6.67916e-13 2.22167 -0.733487 -0.20892 3.03295e-15 -9.90041e-18 -1.49089e-16 6.4841e-14 -6.27414e-16 9.93923e-16 1.12795e-12 3.27001e-13 1.59028e-14 1.28952e-11 -3.87928e-13 3.02153e-13 3.04252e-11 -1.27792e-13 6.61555e-13 5.25575e-11 -2.22639e-13 1.14261e-12 3.04196e-11 -1.28017e-13 6.67916e-13 -7.73091 5.47488 -0.417314 3.04268e-11 -1.28117e-13 6.61555e-13 -2.90554 0.965183 -0.102902 3.04154e-11 -1.28017e-13 6.65531e-13 -10.2786 0.731801 -0.0259123 3.04319e-11 -1.26825e-13 6.58375e-13 -2.22167 -0.733487 0.20892 -2.03217e-16 0.0 -3.88251e-19 0.98556 -4.60217 -0.0812455 -0.00202319 2.78414 -0.00804597 -0.532743 1.81804 0.0982416 2.03217e-16 0.0 3.88251e-19 -0.0700591 -2.29253 0.0218586 0.00846593 -1.39934 0.0723274 0.526068 3.69177 -0.13607
49.1425 84.0311 50.2221 179.978 3.1821 -175.913 0.120837 0.468103 0.782001 0.437052 0.148651 0.251581 -0.985309 1.16995 -0.820072 1.20015 -3.48829 -1.36641 -0.0 0.0 0.0 -0.0 0.0 0.0 8.24835e-15 9.87252e-16 1.50312e-14 18.6743 6.84372 0.336742 -6.67819 -3.76147 9.52273 0.000254935 0.359459 0.0505152 -1.08938e-11 8.20419e-11 -6.45963e-11 -1.87426e-11 1.41706e-10 -1.12209e-10 -1.08877e-11 8.20412e-11 -6.46021e-11 7.73091 5.47488 0.417314 -1.08938e-11 8.20418e-11 -6.45983e-11 2.90554 0.965183 0.102902 -1.08865e-11 8.20424e-11 -6.46014e-11 10.2786 0.731801 0.0259123 -1.09e-11 8.20468e-11 -6.45991e-11 2.22167 -0.733487 -0.20892 8.06612e-15 9.86393e-16 1.46732e-14 -19.0525 6.30695 -0.637336 9.91991 -6.77895 -12.2516 -0.042888 -4.59714 0.638601 -1.56094e-12 -8.57064e-11 1.32204e-11 -2.73009e-12 -1.48849e-10 2.32789e-11 -1.56405e-12 -8.57078e-11 1.32275e-11 -7.73091 5.47488 -0.417314 -1.55898e-12 -8.57065e-11 1.32205e-11 -2.90554 0.965183 -0.102902 -1.56865e-12 -8.57071e-11 1.32224e-11 -10.2786 0.731801 -0.0259123 -1.55426e-12 -8.57045e-11 1.32145e-11 -2.22167 -0.733487 0.20892 -2.03217e-16 0.0 -3.88251e-19 -0.00435328 -6.58983 2.98255 0.0123565 8.51059 0.0990603 -0.703962 -1.05472 -3.47661 2.03217e-16 0.0 3.88251e-19 1.66327 -4.66984 -0.997858 -0.00444683 4.99008 -0.0495525 0.593867 -0.403426 1.9776
49.1228 84.0234 50.29 180.182 3.3124 -175.886 -0.39554 0.97029 1.5958 0.722321 0.311931 0.488597 -1.99128 2.40155 -1.69343 2.28452 -7.1807 -2.83643 -0.0 0.0 0.0 -0.0 0.0 0.0 1.40884e-14 2.77933e-15 2.88766e-14 38.4261 14.0685 0.671447 -12.3669 -7.3625 19.6811 -0.00017284 0.74654 0.104919 -5.91553e-11 1.79145e-10 -1.40442e-10 -1.02023e-10 3.09464e-10 -2.43945e-10 -5.91474e-11 1.79146e-10 -1.40454e-10 7.73091 5.47488 0.417314 -5.91564e-11 1.79145e-10 -1.40447e-10 2.90554 0.965183 0.102902 -5.91497e-11 1.79146e-10 -1.40449e-10 10.2786 0.731801 0.0259123 -5.91608e-11 1.79151e-10 -1.40445e-10 2.22167 -0.733487 -0.20892 1.39194e-14 2.77795e-15 2.85598e-14 -39.1317 12.9822 -1.2928 17.2689 -12.8794 -25.6998 0.0246462 -9.46415 1.32878 -2.556e-11 -1.3941e-10 2.10229e-11 -4.41232e-11 -2.42208e-10 3.73244e-11 -2.55605e-11 -1.39413e-10 2.10308e-11 -7.73091 5.47488 -0.417314 -2.55577e-11 -1.39409e-10 2.10233e-11 -2.90554 0.965183 -0.102902 -2.55655e-11 -1.39411e-10 2.10228e-11 -10.2786 0.731801 -0.0259123 -2.55534e-11 -1.39407e-10 2.10141e-11 -2.22167 -0.733487 0.20892 -2.03217e-16 0.0 -3.88251e-19 -0.812656 -8.6618 6.25631 0.00359298 14.5625 0.217012 -1.27492 -4.0664 -7.27369 2.03217e-16 0.0 3.88251e-19 3.4083 -7.18892 -2.08721 0.0119148 11.7542 -0.181928 0.994345 -4.71909 4.2252
49.1572 84.0296 50.3235 180.313 3.0476 -175.969 -0.879676 1.409 2.31229 0.975496 0.454558 0.697225 -2.85533 3.50697 -2.46432 3.09464 -10.4409 -4.16064 -0.0 0.0 0.0 -0.0 0.0 0.0 1.82871e-14 2.98078e-15 4.45965e-14 55.7675 20.5282 1.07105 -16.4089 -10.0391 28.991 -0.001137 1.07837 0.15157 -9.35444e-11 2.46354e-10 -1.95131e-10 -1.61297e-10 4.25505e-10 -3.38929e-10 -9.35349e-11 2.46356e-10 -1.95148e-10 7.73091 5.47488 0.417314 -9.35464e-11 2.46353e-10 -1.95137e-10 2.90554 0.965183 0.102902 -9.35401e-11 2.46355e-10 -1.95138e-10 10.2786 0.731801 0.0259123 -9.35491e-11 2.4636e-10 -1.95133e-10 2.22167 -0.733487 -0.20892 1.81325e-14 2.97898e-15 4.43177e-14 -56.7161 18.9112 -2.00891 21.4301 -16.5923 -38.3584 0.186462 -13.7845 1.96629 -6.55331e-11 -2.56863e-10 3.83379e-11 -1.13305e-10 -4.46101e-10 6.75516e-11 -6.55314e-11 -2.56867e-10 3.83467e-11 -7.73091 5.47488 -0.417314 -6.55305e-11 -2.56863e-10 3.83384e-11 -2.90554 0.965183 -0.102902 -6.55367e-11 -2.56865e-10 3.8336e-11 -10.2786 0.731801 -0.0259123 -6.55267e-11 -2.5686e-10 3.83267e-11 -2.22167 -0.733487 0.20892 -2.03217e-16 0.0 -3.88251e-19 -1.3401 -10.4584 9.20466 -0.0267218 19.9632 0.329799 -2.12099 -6.68887 -10.6981 2.03217e-16 0.0 3.88251e-19 4.87305 -9.41328 -3.06868 0.0541314 17.7687 -0.307368 1.64098 -8.54385 6.27414
49.1618 84.0283 50.3431 180.437 2.7552 -175.987 -1.25562 1.69006 2.78487 1.15105 0.54558 0.834864 -3.43604 4.29972 -2.97518 3.58637 -12.6441 -5.06007 -0.0 0.0 0.0 -0.0 0.0 0.0 1.83823e-14 -7.94362e-16 6.50026e-14 67.2193 25.0763 1.59171 -18.7783 -11.5488 35.7907 -0.0019851 1.2721 0.178811 -9.32523e-11 2.38823e-10 -1.96927e-10 -1.60554e-10 4.12254e-10 -3.42036e-10 -9.32419e-11 2.38825e-10 -1.96946e-10 7.73091 5.47488 0.417314 -9.32546e-11 2.38823e-10 -1.96934e-10 2.90554 0.965183 0.102902 -9.32482e-11 2.38825e-10 -1.96934e-10 10.2786 0.731801 0.0259123 -9.32564e-11 2.38829e-10 -1.96927e-10 2.22167 -0.733487 -0.20892 1.8245e-14 -7.96303e-16 6.47541e-14 -68.3329 22.9804 -2.79947 23.3207 -17.8793 -47.5272 0.356719 -16.7448 2.42342 -1.45441e-10 -5.33694e-10 7.94344e-11 -2.51959e-10 -9.26333e-10 1.38233e-10 -1.45438e-10 -5.33697e-10 7.94439e-11 -7.73091 5.47488 -0.417314 -1.45438e-10 -5.33694e-10 7.94344e-11 -2.90554 0.965183 -0.102902 -1.45444e-10 -5.33694e-10 7.94312e-11 -10.2786 0.731801 -0.0259123 -1.45435e-10 -5.33691e-10 7.94216e-11 -2.22167 -0.733487 0.20892 -2.03217e-16 0.0 -3.88251e-19 -1.62406 -11.6596 11.2614 -0.0618759 23.7364 0.414679 -2.89416 -8.45052 -13.1133 2.03217e-16 0.0 3.88251e-19 5.82174 -10.9111 -3.75248 0.100049 21.9095 -0.400864 2.25907 -11.1929 7.74602
49.1199 84.0652 50.3526 180.304 2.8462 -175.986 -1.47875 1.76007 2.91836 1.2151 0.56291 0.873777 -3.65256 4.66669 -3.10712 3.80113 -13.3968 -5.31879 -0.0 0.0 0.0 -0.0 0.0 0.0 1.19882e-14 -1.13854e-14 1.06217e-13 70.5161 26.982 2.25678 -19.7508 -12.1935 38.8779 -0.00216221 1.28473 0.18059 -4.97138e-11 1.46827e-10 -1.18086e-10 -8.48634e-11 2.52741e-10 -2.04931e-10 -4.97038e-11 1.46829e-10 -1.18101e-10 7.73091 5.47488 0.417314 -4.97157e-11 1.46827e-10 -1.18091e-10 2.90554 0.965183 0.102902 -4.9708e-11 1.46828e-10 -1.18089e-10 10.2786 0.731801 0.0259123 -4.97176e-11 1.46831e-10 -1.18082e-10 2.22167 -0.733487 -0.20892 1.18726e-14 -1.1387e-14 1.05991e-13 -71.7557 24.4769 -3.62746 23.9605 -18.1376 -51.3575 0.432397 -17.8139 2.59392 -3.42135e-10 -1.27397e-09 1.72833e-10 -5.93404e-10 -2.20963e-09 2.97935e-10 -3.42133e-10 -1.27397e-09 1.72844e-10 -7.73091 5.47488 -0.417314 -3.42133e-10 -1.27397e-09 1.72832e-10 -2.90554 0.965183 -0.102902 -3.42138e-10 -1.27397e-09 1.7283e-10 -10.2786 0.731801 -0.0259123 -3.4213e-10 -1.27397e-09 1.72821e-10 -2.22167 -0.733487 0.20892 -2.03217e-16 0.0 -3.88251e-19 -1.77111 -12.0942 12.0304 -0.0801187 25.2772 0.45077 -3.23267 -9.09457 -14.0654 2.03217e-16 0.0 3.88251e-19 6.12384 -11.382 -3.99071 0.121009 23.4194 -0.43751 2.54344 -12.2455 8.33921
